<svg xmlns="http://www.w3.org/2000/svg" viewBox="0 0 717.02 726.74">
  <g transform="translate(-190.47 220.97)">
    <g>
      <g transform="matrix(3.2864 0 0 3.2864 -438.86 -1576.5)">
        <path style="stroke:#000000;stroke-linecap:round;stroke-width:4;fill:#a9fafa" d="m254.82 509.93c20.689 8.9486 21.382 25.076 38.678 18.753 13.793-5.0421 4.6065-21.087 1.5824-43.424-1.9931-14.723-8.6705-26.603-21.509-37.196-11.882-9.8046-25.311-7.4876-35.415-1.6012-12.689 7.3923-12.96 22.702-11.59 30.678 3.5107 20.439 11.884 25.71 28.254 32.79z"/>
        <path d="m345.76 532.38c7.3936-13.648 16.982-23.188 27.669-25.897 7.7114-1.9542 14.627 2.9966 17.315 7.4851 9.836 18.233-16.225 16.832-15.923 4.1149 0.73013-7.6137 5.5682-5.2645 8.1304-3.4756 4.5376 3.9937 3.8981 8.9928-3.1255 5.5315" style="stroke:#000000;stroke-width:3;fill:none"/>
        <path d="m368.96 564.52c0 28.566-32.166 49.355-71.685 51.723-23.251 1.393-44.693-7.797-54.58-22.189-3.6022-3.9955-10.366-17.481-15.283-20.544-9.2607-5.7677-2.1166-3.07-16.286-10.222 11.668-5.5738 5.9006-0.66764 15.244-6.8709 7.5042-4.4962 15.149-12.54 20.145-18.914 8.8789-11.326 27.851-25.216 50.76-24.706 39.581 0.88018 71.685 23.157 71.685 51.723z" style="stroke:#000000;stroke-linecap:round;stroke-width:4;fill:#ffff00"/>
        <path d="m231.94 578.2s-3.1301-3.8135-4.5288-4.6847c-9.2607-5.7677-4.535-3.07-18.704-10.222 7.1765-2.8099 8.319-2.7405 17.662-6.8709 1.6093-0.96422 4.8197-3.3307 4.8197-3.3307-5.7289 5.9656-8.4839 12.317 0.75095 25.108z" style="stroke:#000000;stroke-linecap:round;stroke-width:4;fill:#000000"/>
        <path d="m277.81 612.73-17.49-3.8056c-12.837-28.65-16.933-52.9 1.9372-85.566l18.198-7.0149c-15.019 26.259-20.226 51.255-2.6447 96.387z" style="stroke:#000000;stroke-linecap:round;stroke-width:4;fill:#000000"/>
        <path d="m325.65 609.58-17.547 5.5362c-12.3-27.47-22.83-70.29 1.05-101.4l18.376 4.8279c-9.6793 10.117-26.327 37.363-1.8695 91.026z" style="stroke:#000000;stroke-linecap:round;stroke-width:4;fill:#000000"/>
        <path d="m358.92 589.24c-10.285 3.0504-18.492-1.6019-20.399-11.027" style="stroke:#000000;stroke-width:3;fill:none"/>
        <path d="m330.95 578.84c3.3721 1.8649 11.148-0.35025 11.039-6.6629" style="stroke:#000000;stroke-width:3;fill:none"/>
        <path style="stroke:#000000;stroke-linecap:round;stroke-width:2;fill:#000000" d="m512.84 567.17c0 26.849-21.765 48.615-48.615 48.615-26.849 0-48.615-21.765-48.615-48.615 0-26.849 21.765-48.615 48.615-48.615 26.849 0 48.615 21.765 48.615 48.615z" transform="matrix(.094178 0 0 .094178 304.21 496.6)"/>
        <path d="m338.25 532.91c-6.8979-13.905-9.1736-27.238-5.2316-37.535 2.8443-7.4293 10.875-10.231 16.092-9.8424 20.57 2.462 4.4133 22.958-5.8082 15.387-5.8033-4.9823-1.0962-7.5841 1.842-8.6481 5.8783-1.4088 9.5965 1.9933 2.7214 5.7411" style="stroke:#000000;stroke-width:3;fill:none"/>
        <path style="stroke:#000000;stroke-linecap:round;stroke-width:4;fill:#a9fafa" d="m278.4 488.98c12.944 19.19 7.893 30.139 7.893 30.139s14.074-2.5494 23.967 3.1895c0 0 8.3697-15.763 14.762-25.475 8.1787-12.426 10.951-25.787 8.226-42.229-2.5221-15.217-14.184-22.3-25.684-24.502-14.442-2.765-24.565 8.7098-28.928 15.538-8.0511 12.6-10.222 28.534-0.23581 43.339z"/>
        <path style="stroke:#000000;stroke-width:3;fill:none" d="m282.19 520.34c3.0906-0.67532 4.4293-0.71347 5.5229-3.243"/>
      </g>
    </g>
  </g>
</svg>
